<?xml version="1.0" encoding="UTF-8" standalone="no"?>
<!DOCTYPE svg PUBLIC "-//W3C//DTD SVG 20010904//EN"
              "http://www.w3.org/TR/2001/REC-SVG-20010904/DTD/svg10.dtd">

<svg xmlns="http://www.w3.org/2000/svg"
     width="2.99667in" height="0.206667in"
     viewBox="0 0 899 62">
  <path id="パス"
        fill="#4848ff" stroke="#4848ff" stroke-width="1"
        d="M 30.95,31.62
           C 30.95,31.62 30.95,51.00 30.95,51.00
             30.95,51.00 22.12,51.00 22.12,51.00
             22.12,51.00 22.12,37.34 22.12,37.34
             22.12,36.02 22.09,34.90 22.02,33.97
             21.95,33.03 21.77,32.27 21.48,31.67
             21.19,31.09 20.75,30.67 20.16,30.41
             19.56,30.14 18.73,30.00 17.66,30.00
             16.79,30.00 15.95,30.18 15.14,30.53
             14.33,30.88 13.59,31.24 12.94,31.62
             12.94,31.62 12.94,51.00 12.94,51.00
             12.94,51.00 4.16,51.00 4.16,51.00
             4.16,51.00 4.16,24.00 4.16,24.00
             4.16,24.00 12.94,24.00 12.94,24.00
             12.94,24.00 12.94,26.77 12.94,26.77
             14.45,25.58 15.89,24.66 17.28,24.00
             18.66,23.34 20.20,23.00 21.88,23.00
             23.68,23.00 25.27,23.40 26.66,24.20
             28.04,25.01 29.12,26.18 29.91,27.73
             31.66,26.27 33.38,25.11 35.03,24.27
             36.69,23.42 38.31,23.00 39.91,23.00
             42.88,23.00 45.12,23.89 46.66,25.66
             48.20,27.42 48.97,29.95 48.97,33.27
             48.97,33.27 48.97,51.00 48.97,51.00
             48.97,51.00 40.14,51.00 40.14,51.00
             40.14,51.00 40.14,37.34 40.14,37.34
             40.14,36.00 40.11,34.87 40.05,33.95
             39.99,33.03 39.82,32.27 39.53,31.67
             39.25,31.09 38.80,30.67 38.20,30.41
             37.61,30.14 36.77,30.00 35.67,30.00
             34.93,30.00 34.21,30.12 33.52,30.38
             32.82,30.62 31.96,31.04 30.95,31.62 Z
           M 73.75,43.97
           C 73.75,43.97 73.75,38.00 73.75,38.00
             72.56,38.11 71.27,38.25 69.89,38.42
             68.50,38.60 67.45,38.81 66.73,39.05
             65.86,39.34 65.19,39.76 64.72,40.31
             64.26,40.87 64.03,41.59 64.03,42.48
             64.03,43.08 64.08,43.56 64.17,43.94
             64.27,44.31 64.52,44.67 64.91,45.00
             65.28,45.34 65.73,45.60 66.25,45.77
             66.77,45.92 67.58,46.00 68.69,46.00
             69.57,46.00 70.46,45.81 71.36,45.44
             72.27,45.06 73.06,44.57 73.75,43.97 Z
           M 73.75,48.09
           C 73.28,48.45 72.69,48.88 71.98,49.39
             71.29,49.89 70.63,50.29 70.02,50.58
             69.15,51.02 68.25,51.36 67.33,51.61
             66.40,51.87 65.38,52.00 64.28,52.00
             61.68,52.00 59.49,51.19 57.73,49.56
             55.97,47.93 55.09,45.84 55.09,43.30
             55.09,41.27 55.54,39.61 56.44,38.33
             57.33,37.04 58.60,36.02 60.25,35.28
             61.88,34.53 63.89,34.00 66.30,33.69
             68.71,33.38 71.21,33.15 73.80,33.00
             73.80,33.00 73.80,32.86 73.80,32.86
             73.80,31.40 73.18,30.40 71.94,29.84
             70.71,29.28 68.89,29.00 66.48,29.00
             65.04,29.00 63.49,29.27 61.84,29.80
             60.20,30.32 59.02,30.72 58.31,31.00
             58.31,31.00 57.50,31.00 57.50,31.00
             57.50,31.00 57.50,24.38 57.50,24.38
             58.43,24.12 59.93,23.84 62.02,23.50
             64.11,23.17 66.21,23.00 68.31,23.00
             73.31,23.00 76.92,23.77 79.14,25.30
             81.36,26.82 82.47,29.21 82.47,32.48
             82.47,32.48 82.47,51.00 82.47,51.00
             82.47,51.00 73.75,51.00 73.75,51.00
             73.75,51.00 73.75,48.09 73.75,48.09 Z
           M 104.44,52.00
           C 102.04,52.00 99.85,51.71 97.88,51.14
             95.91,50.57 94.19,49.69 92.72,48.50
             91.27,47.30 90.14,45.80 89.34,43.98
             88.55,42.17 88.16,40.05 88.16,37.62
             88.16,35.06 88.58,32.85 89.44,30.98
             90.29,29.12 91.48,27.58 93.02,26.36
             94.49,25.20 96.20,24.34 98.14,23.81
             100.08,23.27 102.09,23.00 104.17,23.00
             106.05,23.00 107.77,23.21 109.34,23.64
             110.93,24.06 112.40,24.60 113.77,25.27
             113.77,25.27 113.77,33.00 113.77,33.00
             113.77,33.00 112.52,33.00 112.52,33.00
             112.17,32.66 111.76,32.26 111.28,31.80
             110.80,31.34 110.21,30.89 109.52,30.45
             108.85,30.04 108.11,29.70 107.31,29.42
             106.52,29.14 105.59,29.00 104.53,29.00
             102.19,29.00 100.38,29.78 99.12,31.33
             97.86,32.87 97.23,34.97 97.23,37.62
             97.23,40.37 97.88,42.45 99.17,43.88
             100.46,45.29 102.30,46.00 104.69,46.00
             105.79,46.00 106.79,45.85 107.67,45.55
             108.55,45.25 109.30,44.89 109.89,44.48
             110.44,44.09 110.93,43.68 111.34,43.25
             111.77,42.82 112.16,42.41 112.52,42.00
             112.52,42.00 113.77,42.00 113.77,42.00
             113.77,42.00 113.77,49.80 113.77,49.80
             112.38,50.48 110.93,51.01 109.42,51.41
             107.92,51.80 106.26,52.00 104.44,52.00 Z
           M 133.44,52.00
           C 131.04,52.00 128.85,51.71 126.88,51.14
             124.91,50.57 123.19,49.69 121.72,48.50
             120.27,47.30 119.14,45.80 118.34,43.98
             117.55,42.17 117.16,40.05 117.16,37.62
             117.16,35.06 117.58,32.85 118.44,30.98
             119.29,29.12 120.48,27.58 122.02,26.36
             123.49,25.20 125.20,24.34 127.14,23.81
             129.08,23.27 131.09,23.00 133.17,23.00
             135.05,23.00 136.77,23.21 138.34,23.64
             139.93,24.06 141.40,24.60 142.77,25.27
             142.77,25.27 142.77,33.00 142.77,33.00
             142.77,33.00 141.52,33.00 141.52,33.00
             141.17,32.66 140.76,32.26 140.28,31.80
             139.80,31.34 139.21,30.89 138.52,30.45
             137.85,30.04 137.11,29.70 136.31,29.42
             135.52,29.14 134.59,29.00 133.53,29.00
             131.19,29.00 129.38,29.78 128.12,31.33
             126.86,32.87 126.23,34.97 126.23,37.62
             126.23,40.37 126.88,42.45 128.17,43.88
             129.46,45.29 131.30,46.00 133.69,46.00
             134.79,46.00 135.79,45.85 136.67,45.55
             137.55,45.25 138.30,44.89 138.89,44.48
             139.44,44.09 139.93,43.68 140.34,43.25
             140.77,42.82 141.16,42.41 141.52,42.00
             141.52,42.00 142.77,42.00 142.77,42.00
             142.77,42.00 142.77,49.80 142.77,49.80
             141.38,50.48 139.93,51.01 138.42,51.41
             136.92,51.80 135.26,52.00 133.44,52.00 Z
           M 175.69,51.00
           C 175.69,51.00 166.86,51.00 166.86,51.00
             166.86,51.00 166.86,37.45 166.86,37.45
             166.86,36.35 166.80,35.25 166.69,34.16
             166.57,33.05 166.38,32.25 166.11,31.73
             165.77,31.13 165.30,30.70 164.67,30.42
             164.05,30.14 163.17,30.00 162.05,30.00
             161.24,30.00 160.43,30.13 159.61,30.39
             158.79,30.65 157.89,31.06 156.94,31.62
             156.94,31.62 156.94,51.00 156.94,51.00
             156.94,51.00 148.16,51.00 148.16,51.00
             148.16,51.00 148.16,13.00 148.16,13.00
             148.16,13.00 156.94,13.00 156.94,13.00
             156.94,13.00 156.94,26.77 156.94,26.77
             158.50,25.55 160.00,24.62 161.44,23.97
             162.88,23.32 164.48,23.00 166.23,23.00
             169.20,23.00 171.52,23.86 173.19,25.58
             174.85,27.29 175.69,29.85 175.69,33.27
             175.69,33.27 175.69,51.00 175.69,51.00 Z
           M 192.94,51.00
           C 192.94,51.00 184.16,51.00 184.16,51.00
             184.16,51.00 184.16,24.00 184.16,24.00
             184.16,24.00 192.94,24.00 192.94,24.00
             192.94,24.00 192.94,51.00 192.94,51.00 Z
           M 193.19,20.00
           C 193.19,20.00 183.91,20.00 183.91,20.00
             183.91,20.00 183.91,13.00 183.91,13.00
             183.91,13.00 193.19,13.00 193.19,13.00
             193.19,13.00 193.19,20.00 193.19,20.00 Z
           M 228.69,51.00
           C 228.69,51.00 219.86,51.00 219.86,51.00
             219.86,51.00 219.86,37.45 219.86,37.45
             219.86,36.35 219.80,35.25 219.69,34.16
             219.57,33.05 219.38,32.25 219.11,31.73
             218.77,31.13 218.30,30.70 217.67,30.42
             217.05,30.14 216.17,30.00 215.05,30.00
             214.24,30.00 213.43,30.13 212.61,30.39
             211.79,30.65 210.89,31.06 209.94,31.62
             209.94,31.62 209.94,51.00 209.94,51.00
             209.94,51.00 201.16,51.00 201.16,51.00
             201.16,51.00 201.16,24.00 201.16,24.00
             201.16,24.00 209.94,24.00 209.94,24.00
             209.94,24.00 209.94,26.77 209.94,26.77
             211.50,25.55 213.00,24.62 214.44,23.97
             215.88,23.32 217.48,23.00 219.23,23.00
             222.20,23.00 224.52,23.86 226.19,25.58
             227.85,27.29 228.69,29.85 228.69,33.27
             228.69,33.27 228.69,51.00 228.69,51.00 Z
           M 264.16,39.00
           C 264.16,39.00 244.03,39.00 244.03,39.00
             244.16,41.26 244.98,43.00 246.48,44.20
             247.99,45.40 250.21,46.00 253.14,46.00
             254.99,46.00 256.79,45.68 258.53,45.05
             260.28,44.41 261.66,43.73 262.66,43.00
             262.66,43.00 263.64,43.00 263.64,43.00
             263.64,43.00 263.64,49.81 263.64,49.81
             261.65,50.59 259.77,51.14 258.02,51.48
             256.27,51.83 254.32,52.00 252.19,52.00
             246.69,52.00 242.47,50.77 239.55,48.30
             236.62,45.82 235.16,42.29 235.16,37.72
             235.16,33.20 236.54,29.62 239.31,26.97
             242.09,24.32 245.90,23.00 250.73,23.00
             255.19,23.00 258.54,24.12 260.78,26.34
             263.03,28.57 264.16,31.78 264.16,35.95
             264.16,35.95 264.16,39.00 264.16,39.00 Z
           M 255.41,34.00
           C 255.35,32.34 254.89,31.10 254.03,30.27
             253.18,29.42 251.84,29.00 250.02,29.00
             248.33,29.00 246.94,29.40 245.84,30.19
             244.75,30.98 244.14,32.25 244.02,34.00
             244.02,34.00 255.41,34.00 255.41,34.00 Z
           M 287.69,51.20
           C 286.74,51.45 285.73,51.64 284.67,51.78
             283.62,51.93 282.33,52.00 280.80,52.00
             277.38,52.00 274.83,51.30 273.16,49.92
             271.49,48.54 270.66,46.17 270.66,42.81
             270.66,42.81 270.66,30.00 270.66,30.00
             270.66,30.00 267.05,30.00 267.05,30.00
             267.05,30.00 267.05,24.00 267.05,24.00
             267.05,24.00 270.66,24.00 270.66,24.00
             270.66,24.00 270.66,16.00 270.66,16.00
             270.66,16.00 279.45,16.00 279.45,16.00
             279.45,16.00 279.45,24.00 279.45,24.00
             279.45,24.00 287.69,24.00 287.69,24.00
             287.69,24.00 287.69,30.00 287.69,30.00
             287.69,30.00 279.45,30.00 279.45,30.00
             279.45,30.00 279.45,39.70 279.45,39.70
             279.45,40.66 279.46,41.50 279.47,42.22
             279.49,42.94 279.62,43.58 279.88,44.14
             280.09,44.71 280.49,45.17 281.08,45.50
             281.66,45.84 282.50,46.00 283.61,46.00
             284.07,46.00 284.66,45.89 285.41,45.66
             286.14,45.42 286.66,45.20 286.95,45.00
             286.95,45.00 287.69,45.00 287.69,45.00
             287.69,45.00 287.69,51.20 287.69,51.20 Z
           M 310.69,51.20
           C 309.74,51.45 308.73,51.64 307.67,51.78
             306.62,51.93 305.33,52.00 303.80,52.00
             300.38,52.00 297.83,51.30 296.16,49.92
             294.49,48.54 293.66,46.17 293.66,42.81
             293.66,42.81 293.66,30.00 293.66,30.00
             293.66,30.00 290.05,30.00 290.05,30.00
             290.05,30.00 290.05,24.00 290.05,24.00
             290.05,24.00 293.66,24.00 293.66,24.00
             293.66,24.00 293.66,16.00 293.66,16.00
             293.66,16.00 302.45,16.00 302.45,16.00
             302.45,16.00 302.45,24.00 302.45,24.00
             302.45,24.00 310.69,24.00 310.69,24.00
             310.69,24.00 310.69,30.00 310.69,30.00
             310.69,30.00 302.45,30.00 302.45,30.00
             302.45,30.00 302.45,39.70 302.45,39.70
             302.45,40.66 302.46,41.50 302.47,42.22
             302.49,42.94 302.62,43.58 302.88,44.14
             303.09,44.71 303.49,45.17 304.08,45.50
             304.66,45.84 305.50,46.00 306.61,46.00
             307.07,46.00 307.66,45.89 308.41,45.66
             309.14,45.42 309.66,45.20 309.95,45.00
             309.95,45.00 310.69,45.00 310.69,45.00
             310.69,45.00 310.69,51.20 310.69,51.20 Z
           M 332.75,43.97
           C 332.75,43.97 332.75,38.00 332.75,38.00
             331.56,38.11 330.27,38.25 328.89,38.42
             327.50,38.60 326.45,38.81 325.73,39.05
             324.86,39.34 324.19,39.76 323.72,40.31
             323.26,40.87 323.03,41.59 323.03,42.48
             323.03,43.08 323.08,43.56 323.17,43.94
             323.27,44.31 323.52,44.67 323.91,45.00
             324.28,45.34 324.73,45.60 325.25,45.77
             325.77,45.92 326.58,46.00 327.69,46.00
             328.57,46.00 329.46,45.81 330.36,45.44
             331.27,45.06 332.06,44.57 332.75,43.97 Z
           M 332.75,48.09
           C 332.28,48.45 331.69,48.88 330.98,49.39
             330.29,49.89 329.63,50.29 329.02,50.58
             328.15,51.02 327.25,51.36 326.33,51.61
             325.40,51.87 324.38,52.00 323.28,52.00
             320.68,52.00 318.49,51.19 316.73,49.56
             314.97,47.93 314.09,45.84 314.09,43.30
             314.09,41.27 314.54,39.61 315.44,38.33
             316.33,37.04 317.60,36.02 319.25,35.28
             320.88,34.53 322.89,34.00 325.30,33.69
             327.71,33.38 330.21,33.15 332.80,33.00
             332.80,33.00 332.80,32.86 332.80,32.86
             332.80,31.40 332.18,30.40 330.94,29.84
             329.71,29.28 327.89,29.00 325.48,29.00
             324.04,29.00 322.49,29.27 320.84,29.80
             319.20,30.32 318.02,30.72 317.31,31.00
             317.31,31.00 316.50,31.00 316.50,31.00
             316.50,31.00 316.50,24.38 316.50,24.38
             317.43,24.12 318.93,23.84 321.02,23.50
             323.11,23.17 325.21,23.00 327.31,23.00
             332.31,23.00 335.92,23.77 338.14,25.30
             340.36,26.82 341.47,29.21 341.47,32.48
             341.47,32.48 341.47,51.00 341.47,51.00
             341.47,51.00 332.75,51.00 332.75,51.00
             332.75,51.00 332.75,48.09 332.75,48.09 Z
           M 366.31,38.00
           C 366.31,38.00 347.69,38.00 347.69,38.00
             347.69,38.00 347.69,31.00 347.69,31.00
             347.69,31.00 366.31,31.00 366.31,31.00
             366.31,31.00 366.31,38.00 366.31,38.00 Z
           M 401.77,37.23
           C 401.77,39.52 401.41,41.59 400.72,43.47
             400.03,45.34 399.12,46.89 398.00,48.11
             396.83,49.39 395.50,50.36 394.02,51.02
             392.54,51.67 390.95,52.00 389.27,52.00
             387.70,52.00 386.38,51.83 385.28,51.50
             384.19,51.16 383.07,50.70 381.94,50.09
             381.94,50.09 381.94,61.00 381.94,61.00
             381.94,61.00 373.16,61.00 373.16,61.00
             373.16,61.00 373.16,24.00 373.16,24.00
             373.16,24.00 381.94,24.00 381.94,24.00
             381.94,24.00 381.94,26.86 381.94,26.86
             383.29,25.79 384.67,24.88 386.08,24.12
             387.48,23.38 389.11,23.00 390.95,23.00
             394.37,23.00 397.02,24.27 398.92,26.80
             400.82,29.33 401.77,32.81 401.77,37.23 Z
           M 392.70,37.72
           C 392.70,35.01 392.24,33.05 391.33,31.83
             390.42,30.61 388.98,30.00 387.02,30.00
             386.18,30.00 385.33,30.13 384.45,30.39
             383.58,30.64 382.74,31.01 381.94,31.48
             381.94,31.48 381.94,45.45 381.94,45.45
             382.52,45.68 383.14,45.84 383.81,45.91
             384.48,45.97 385.14,46.00 385.80,46.00
             388.12,46.00 389.85,45.31 390.98,43.94
             392.13,42.56 392.70,40.49 392.70,37.72 Z
           M 425.31,38.00
           C 425.31,38.00 406.69,38.00 406.69,38.00
             406.69,38.00 406.69,31.00 406.69,31.00
             406.69,31.00 425.31,31.00 425.31,31.00
             425.31,31.00 425.31,38.00 425.31,38.00 Z
           M 458.95,31.62
           C 458.95,31.62 458.95,51.00 458.95,51.00
             458.95,51.00 450.12,51.00 450.12,51.00
             450.12,51.00 450.12,37.34 450.12,37.34
             450.12,36.02 450.09,34.90 450.02,33.97
             449.95,33.03 449.77,32.27 449.48,31.67
             449.19,31.09 448.75,30.67 448.16,30.41
             447.56,30.14 446.73,30.00 445.66,30.00
             444.79,30.00 443.95,30.18 443.14,30.53
             442.33,30.88 441.59,31.24 440.94,31.62
             440.94,31.62 440.94,51.00 440.94,51.00
             440.94,51.00 432.16,51.00 432.16,51.00
             432.16,51.00 432.16,24.00 432.16,24.00
             432.16,24.00 440.94,24.00 440.94,24.00
             440.94,24.00 440.94,26.77 440.94,26.77
             442.45,25.58 443.89,24.66 445.28,24.00
             446.66,23.34 448.20,23.00 449.88,23.00
             451.68,23.00 453.27,23.40 454.66,24.20
             456.04,25.01 457.12,26.18 457.91,27.73
             459.66,26.27 461.38,25.11 463.03,24.27
             464.69,23.42 466.31,23.00 467.91,23.00
             470.88,23.00 473.12,23.89 474.66,25.66
             476.20,27.42 476.97,29.95 476.97,33.27
             476.97,33.27 476.97,51.00 476.97,51.00
             476.97,51.00 468.14,51.00 468.14,51.00
             468.14,51.00 468.14,37.34 468.14,37.34
             468.14,36.00 468.11,34.87 468.05,33.95
             467.99,33.03 467.82,32.27 467.53,31.67
             467.25,31.09 466.80,30.67 466.20,30.41
             465.61,30.14 464.77,30.00 463.67,30.00
             462.93,30.00 462.21,30.12 461.52,30.38
             460.82,30.62 459.96,31.04 458.95,31.62 Z
           M 493.94,51.00
           C 493.94,51.00 485.16,51.00 485.16,51.00
             485.16,51.00 485.16,13.00 485.16,13.00
             485.16,13.00 493.94,13.00 493.94,13.00
             493.94,13.00 493.94,51.00 493.94,51.00 Z
           M 536.80,19.81
           C 538.62,21.66 540.05,23.87 541.08,26.44
             542.11,29.01 542.62,31.89 542.62,35.08
             542.62,37.38 542.30,39.72 541.64,42.09
             540.99,44.47 540.18,46.44 539.20,48.00
             539.20,48.00 526.86,48.00 526.86,48.00
             526.86,48.00 526.47,46.09 526.47,46.09
             525.54,46.71 524.64,47.18 523.78,47.52
             522.91,47.84 521.67,48.00 520.05,48.00
             517.40,48.00 515.25,46.89 513.61,44.66
             511.96,42.43 511.14,39.43 511.14,35.66
             511.14,33.64 511.41,31.87 511.97,30.34
             512.52,28.82 513.27,27.50 514.23,26.38
             515.13,25.32 516.21,24.50 517.48,23.91
             518.75,23.30 520.02,23.00 521.27,23.00
             522.34,23.00 523.29,23.14 524.11,23.42
             524.94,23.70 525.59,24.06 526.05,24.50
             526.05,24.50 526.05,23.00 526.05,23.00
             526.05,23.00 531.72,23.00 531.72,23.00
             531.72,23.00 531.72,44.00 531.72,44.00
             531.72,44.00 535.86,44.00 535.86,44.00
             536.44,42.67 536.88,41.22 537.16,39.66
             537.45,38.09 537.59,36.60 537.59,35.17
             537.59,32.32 537.21,29.82 536.44,27.67
             535.68,25.52 534.62,23.73 533.27,22.30
             531.89,20.85 530.27,19.77 528.41,19.06
             526.55,18.36 524.55,18.00 522.39,18.00
             520.32,18.00 518.35,18.42 516.48,19.27
             514.62,20.11 512.98,21.25 511.56,22.67
             510.11,24.14 508.94,25.98 508.03,28.19
             507.13,30.40 506.69,32.81 506.69,35.44
             506.69,38.30 507.11,40.84 507.97,43.05
             508.82,45.26 509.96,47.09 511.38,48.55
             512.79,50.00 514.44,51.10 516.31,51.86
             518.19,52.62 520.16,53.00 522.25,53.00
             523.63,53.00 525.21,52.91 526.97,52.72
             528.74,52.54 530.30,52.30 531.67,52.00
             531.67,52.00 531.67,56.09 531.67,56.09
             530.16,56.38 528.66,56.61 527.16,56.77
             525.66,56.92 524.02,57.00 522.25,57.00
             519.27,57.00 516.52,56.48 513.98,55.45
             511.45,54.42 509.26,52.95 507.41,51.05
             505.56,49.16 504.12,46.88 503.09,44.20
             502.06,41.53 501.55,38.61 501.55,35.44
             501.55,32.39 502.08,29.56 503.16,26.97
             504.23,24.37 505.71,22.09 507.59,20.16
             509.44,18.25 511.64,16.75 514.20,15.66
             516.77,14.55 519.48,14.00 522.36,14.00
             525.22,14.00 527.89,14.51 530.38,15.53
             532.86,16.55 535.00,17.98 536.80,19.81 Z
           M 525.94,41.08
           C 525.94,41.08 525.94,28.97 525.94,28.97
             525.27,28.62 524.65,28.38 524.08,28.23
             523.50,28.08 522.86,28.00 522.16,28.00
             520.59,28.00 519.38,28.67 518.53,30.02
             517.69,31.36 517.27,33.20 517.27,35.55
             517.27,38.08 517.61,39.95 518.31,41.17
             519.01,42.39 520.16,43.00 521.78,43.00
             522.63,43.00 523.38,42.84 524.00,42.52
             524.63,42.18 525.28,41.70 525.94,41.08 Z
           M 577.69,51.00
           C 577.69,51.00 568.86,51.00 568.86,51.00
             568.86,51.00 568.86,37.45 568.86,37.45
             568.86,36.35 568.80,35.25 568.69,34.16
             568.57,33.05 568.38,32.25 568.11,31.73
             567.77,31.13 567.30,30.70 566.67,30.42
             566.05,30.14 565.17,30.00 564.05,30.00
             563.24,30.00 562.43,30.13 561.61,30.39
             560.79,30.65 559.89,31.06 558.94,31.62
             558.94,31.62 558.94,51.00 558.94,51.00
             558.94,51.00 550.16,51.00 550.16,51.00
             550.16,51.00 550.16,13.00 550.16,13.00
             550.16,13.00 558.94,13.00 558.94,13.00
             558.94,13.00 558.94,26.77 558.94,26.77
             560.50,25.55 562.00,24.62 563.44,23.97
             564.88,23.32 566.48,23.00 568.23,23.00
             571.20,23.00 573.52,23.86 575.19,25.58
             576.85,27.29 577.69,29.85 577.69,33.27
             577.69,33.27 577.69,51.00 577.69,51.00 Z
           M 600.44,52.00
           C 598.04,52.00 595.85,51.71 593.88,51.14
             591.91,50.57 590.19,49.69 588.72,48.50
             587.27,47.30 586.14,45.80 585.34,43.98
             584.55,42.17 584.16,40.05 584.16,37.62
             584.16,35.06 584.58,32.85 585.44,30.98
             586.29,29.12 587.48,27.58 589.02,26.36
             590.49,25.20 592.20,24.34 594.14,23.81
             596.08,23.27 598.09,23.00 600.17,23.00
             602.05,23.00 603.77,23.21 605.34,23.64
             606.93,24.06 608.40,24.60 609.77,25.27
             609.77,25.27 609.77,33.00 609.77,33.00
             609.77,33.00 608.52,33.00 608.52,33.00
             608.17,32.66 607.76,32.26 607.28,31.80
             606.80,31.34 606.21,30.89 605.52,30.45
             604.85,30.04 604.11,29.70 603.31,29.42
             602.52,29.14 601.59,29.00 600.53,29.00
             598.19,29.00 596.38,29.78 595.12,31.33
             593.86,32.87 593.23,34.97 593.23,37.62
             593.23,40.37 593.88,42.45 595.17,43.88
             596.46,45.29 598.30,46.00 600.69,46.00
             601.79,46.00 602.79,45.85 603.67,45.55
             604.55,45.25 605.30,44.89 605.89,44.48
             606.44,44.09 606.93,43.68 607.34,43.25
             607.77,42.82 608.16,42.41 608.52,42.00
             608.52,42.00 609.77,42.00 609.77,42.00
             609.77,42.00 609.77,49.80 609.77,49.80
             608.38,50.48 606.93,51.01 605.42,51.41
             603.92,51.80 602.26,52.00 600.44,52.00 Z
           M 643.17,37.52
           C 643.17,42.01 641.86,45.54 639.23,48.12
             636.61,50.71 632.91,52.00 628.16,52.00
             623.41,52.00 619.72,50.71 617.09,48.12
             614.47,45.54 613.16,42.01 613.16,37.52
             613.16,33.00 614.48,29.45 617.12,26.88
             619.77,24.29 623.45,23.00 628.16,23.00
             632.95,23.00 636.64,24.30 639.25,26.89
             641.86,29.48 643.17,33.03 643.17,37.52 Z
           M 632.38,44.23
           C 632.94,43.53 633.36,42.68 633.64,41.69
             633.93,40.69 634.08,39.31 634.08,37.56
             634.08,35.94 633.93,34.58 633.64,33.48
             633.35,32.38 632.94,31.50 632.42,30.84
             631.90,30.18 631.27,29.70 630.53,29.42
             629.80,29.14 629.02,29.00 628.17,29.00
             627.32,29.00 626.55,29.12 625.89,29.34
             625.23,29.57 624.61,30.03 624.02,30.72
             623.47,31.37 623.04,32.25 622.72,33.36
             622.41,34.48 622.25,35.88 622.25,37.56
             622.25,39.07 622.38,40.38 622.66,41.48
             622.94,42.59 623.35,43.48 623.89,44.16
             624.41,44.79 625.03,45.26 625.75,45.56
             626.48,45.86 627.30,46.00 628.23,46.00
             629.04,46.00 629.80,45.87 630.52,45.59
             631.24,45.32 631.86,44.87 632.38,44.23 Z
           M 658.59,51.00
           C 658.59,51.00 649.47,51.00 649.47,51.00
             649.47,51.00 649.47,41.00 649.47,41.00
             649.47,41.00 658.59,41.00 658.59,41.00
             658.59,41.00 658.59,51.00 658.59,51.00 Z
           M 694.69,51.00
           C 694.69,51.00 685.86,51.00 685.86,51.00
             685.86,51.00 685.86,37.45 685.86,37.45
             685.86,36.35 685.80,35.25 685.69,34.16
             685.57,33.05 685.38,32.25 685.11,31.73
             684.77,31.13 684.30,30.70 683.67,30.42
             683.05,30.14 682.17,30.00 681.05,30.00
             680.24,30.00 679.43,30.13 678.61,30.39
             677.79,30.65 676.89,31.06 675.94,31.62
             675.94,31.62 675.94,51.00 675.94,51.00
             675.94,51.00 667.16,51.00 667.16,51.00
             667.16,51.00 667.16,24.00 667.16,24.00
             667.16,24.00 675.94,24.00 675.94,24.00
             675.94,24.00 675.94,26.77 675.94,26.77
             677.50,25.55 679.00,24.62 680.44,23.97
             681.88,23.32 683.48,23.00 685.23,23.00
             688.20,23.00 690.52,23.86 692.19,25.58
             693.85,27.29 694.69,29.85 694.69,33.27
             694.69,33.27 694.69,51.00 694.69,51.00 Z
           M 720.69,51.20
           C 719.74,51.45 718.73,51.64 717.67,51.78
             716.62,51.93 715.33,52.00 713.80,52.00
             710.38,52.00 707.83,51.30 706.16,49.92
             704.49,48.54 703.66,46.17 703.66,42.81
             703.66,42.81 703.66,30.00 703.66,30.00
             703.66,30.00 700.05,30.00 700.05,30.00
             700.05,30.00 700.05,24.00 700.05,24.00
             700.05,24.00 703.66,24.00 703.66,24.00
             703.66,24.00 703.66,16.00 703.66,16.00
             703.66,16.00 712.45,16.00 712.45,16.00
             712.45,16.00 712.45,24.00 712.45,24.00
             712.45,24.00 720.69,24.00 720.69,24.00
             720.69,24.00 720.69,30.00 720.69,30.00
             720.69,30.00 712.45,30.00 712.45,30.00
             712.45,30.00 712.45,39.70 712.45,39.70
             712.45,40.66 712.46,41.50 712.47,42.22
             712.49,42.94 712.62,43.58 712.88,44.14
             713.09,44.71 713.49,45.17 714.08,45.50
             714.66,45.84 715.50,46.00 716.61,46.00
             717.07,46.00 717.66,45.89 718.41,45.66
             719.14,45.42 719.66,45.20 719.95,45.00
             719.95,45.00 720.69,45.00 720.69,45.00
             720.69,45.00 720.69,51.20 720.69,51.20 Z
           M 743.69,51.20
           C 742.74,51.45 741.73,51.64 740.67,51.78
             739.62,51.93 738.33,52.00 736.80,52.00
             733.38,52.00 730.83,51.30 729.16,49.92
             727.49,48.54 726.66,46.17 726.66,42.81
             726.66,42.81 726.66,30.00 726.66,30.00
             726.66,30.00 723.05,30.00 723.05,30.00
             723.05,30.00 723.05,24.00 723.05,24.00
             723.05,24.00 726.66,24.00 726.66,24.00
             726.66,24.00 726.66,16.00 726.66,16.00
             726.66,16.00 735.45,16.00 735.45,16.00
             735.45,16.00 735.45,24.00 735.45,24.00
             735.45,24.00 743.69,24.00 743.69,24.00
             743.69,24.00 743.69,30.00 743.69,30.00
             743.69,30.00 735.45,30.00 735.45,30.00
             735.45,30.00 735.45,39.70 735.45,39.70
             735.45,40.66 735.46,41.50 735.47,42.22
             735.49,42.94 735.62,43.58 735.88,44.14
             736.09,44.71 736.49,45.17 737.08,45.50
             737.66,45.84 738.50,46.00 739.61,46.00
             740.07,46.00 740.66,45.89 741.41,45.66
             742.14,45.42 742.66,45.20 742.95,45.00
             742.95,45.00 743.69,45.00 743.69,45.00
             743.69,45.00 743.69,51.20 743.69,51.20 Z
           M 758.59,51.00
           C 758.59,51.00 749.47,51.00 749.47,51.00
             749.47,51.00 749.47,41.00 749.47,41.00
             749.47,41.00 758.59,41.00 758.59,41.00
             758.59,41.00 758.59,51.00 758.59,51.00 Z
           M 781.44,52.00
           C 779.04,52.00 776.85,51.71 774.88,51.14
             772.91,50.57 771.19,49.69 769.72,48.50
             768.27,47.30 767.14,45.80 766.34,43.98
             765.55,42.17 765.16,40.05 765.16,37.62
             765.16,35.06 765.58,32.85 766.44,30.98
             767.29,29.12 768.48,27.58 770.02,26.36
             771.49,25.20 773.20,24.34 775.14,23.81
             777.08,23.27 779.09,23.00 781.17,23.00
             783.05,23.00 784.77,23.21 786.34,23.64
             787.93,24.06 789.40,24.60 790.77,25.27
             790.77,25.27 790.77,33.00 790.77,33.00
             790.77,33.00 789.52,33.00 789.52,33.00
             789.17,32.66 788.76,32.26 788.28,31.80
             787.80,31.34 787.21,30.89 786.52,30.45
             785.85,30.04 785.11,29.70 784.31,29.42
             783.52,29.14 782.59,29.00 781.53,29.00
             779.19,29.00 777.38,29.78 776.12,31.33
             774.86,32.87 774.23,34.97 774.23,37.62
             774.23,40.37 774.88,42.45 776.17,43.88
             777.46,45.29 779.30,46.00 781.69,46.00
             782.79,46.00 783.79,45.85 784.67,45.55
             785.55,45.25 786.30,44.89 786.89,44.48
             787.44,44.09 787.93,43.68 788.34,43.25
             788.77,42.82 789.16,42.41 789.52,42.00
             789.52,42.00 790.77,42.00 790.77,42.00
             790.77,42.00 790.77,49.80 790.77,49.80
             789.38,50.48 787.93,51.01 786.42,51.41
             784.92,51.80 783.26,52.00 781.44,52.00 Z
           M 824.17,37.52
           C 824.17,42.01 822.86,45.54 820.23,48.12
             817.61,50.71 813.91,52.00 809.16,52.00
             804.41,52.00 800.72,50.71 798.09,48.12
             795.47,45.54 794.16,42.01 794.16,37.52
             794.16,33.00 795.48,29.45 798.12,26.88
             800.77,24.29 804.45,23.00 809.16,23.00
             813.95,23.00 817.64,24.30 820.25,26.89
             822.86,29.48 824.17,33.03 824.17,37.52 Z
           M 813.38,44.23
           C 813.94,43.53 814.36,42.68 814.64,41.69
             814.93,40.69 815.08,39.31 815.08,37.56
             815.08,35.94 814.93,34.58 814.64,33.48
             814.35,32.38 813.94,31.50 813.42,30.84
             812.90,30.18 812.27,29.70 811.53,29.42
             810.80,29.14 810.02,29.00 809.17,29.00
             808.32,29.00 807.55,29.12 806.89,29.34
             806.23,29.57 805.61,30.03 805.02,30.72
             804.47,31.37 804.04,32.25 803.72,33.36
             803.41,34.48 803.25,35.88 803.25,37.56
             803.25,39.07 803.38,40.38 803.66,41.48
             803.94,42.59 804.35,43.48 804.89,44.16
             805.41,44.79 806.03,45.26 806.75,45.56
             807.48,45.86 808.30,46.00 809.23,46.00
             810.04,46.00 810.80,45.87 811.52,45.59
             812.24,45.32 812.86,44.87 813.38,44.23 Z
           M 839.59,51.00
           C 839.59,51.00 830.47,51.00 830.47,51.00
             830.47,51.00 830.47,41.00 830.47,41.00
             830.47,41.00 839.59,41.00 839.59,41.00
             839.59,41.00 839.59,51.00 839.59,51.00 Z
           M 860.02,51.36
           C 860.02,54.39 859.06,56.75 857.16,58.45
             855.25,60.15 852.80,61.00 849.81,61.00
             848.21,61.00 846.75,60.93 845.44,60.78
             844.13,60.64 843.18,60.50 842.58,60.36
             842.58,60.36 842.58,54.00 842.58,54.00
             842.58,54.00 843.27,54.00 843.27,54.00
             843.76,54.28 844.36,54.52 845.09,54.70
             845.83,54.90 846.41,55.00 846.83,55.00
             848.52,55.00 849.68,54.50 850.30,53.52
             850.92,52.52 851.23,50.90 851.23,48.62
             851.23,48.62 851.23,30.00 851.23,30.00
             851.23,30.00 846.03,30.00 846.03,30.00
             846.03,30.00 846.03,24.00 846.03,24.00
             846.03,24.00 860.02,24.00 860.02,24.00
             860.02,24.00 860.02,51.36 860.02,51.36 Z
           M 860.02,20.00
           C 860.02,20.00 850.67,20.00 850.67,20.00
             850.67,20.00 850.67,13.00 850.67,13.00
             850.67,13.00 860.02,13.00 860.02,13.00
             860.02,13.00 860.02,20.00 860.02,20.00 Z
           M 896.77,37.23
           C 896.77,39.52 896.41,41.59 895.72,43.47
             895.03,45.34 894.12,46.89 893.00,48.11
             891.83,49.39 890.50,50.36 889.02,51.02
             887.54,51.67 885.95,52.00 884.27,52.00
             882.70,52.00 881.38,51.83 880.28,51.50
             879.19,51.16 878.07,50.70 876.94,50.09
             876.94,50.09 876.94,61.00 876.94,61.00
             876.94,61.00 868.16,61.00 868.16,61.00
             868.16,61.00 868.16,24.00 868.16,24.00
             868.16,24.00 876.94,24.00 876.94,24.00
             876.94,24.00 876.94,26.86 876.94,26.86
             878.29,25.79 879.67,24.88 881.08,24.12
             882.48,23.38 884.11,23.00 885.95,23.00
             889.37,23.00 892.02,24.27 893.92,26.80
             895.82,29.33 896.77,32.81 896.77,37.23 Z
           M 887.70,37.72
           C 887.70,35.01 887.24,33.05 886.33,31.83
             885.42,30.61 883.98,30.00 882.02,30.00
             881.18,30.00 880.33,30.13 879.45,30.39
             878.58,30.64 877.74,31.01 876.94,31.48
             876.94,31.48 876.94,45.45 876.94,45.45
             877.52,45.68 878.14,45.84 878.81,45.91
             879.48,45.97 880.14,46.00 880.80,46.00
             883.12,46.00 884.85,45.31 885.98,43.94
             887.13,42.56 887.70,40.49 887.70,37.72 Z" />
</svg>
